<svg xmlns="http://www.w3.org/2000/svg" width="800" height="500" viewBox="0 0 800 500">
  <defs>
    <linearGradient id="bg-creative" x1="0%" y1="0%" x2="100%" y2="100%">
      <stop offset="0%" style="stop-color:#0f0f0f;stop-opacity:1" />
      <stop offset="50%" style="stop-color:#1a0a2e;stop-opacity:1" />
      <stop offset="100%" style="stop-color:#16213e;stop-opacity:1" />
    </linearGradient>
    <linearGradient id="accent" x1="0%" y1="0%" x2="100%" y2="0%">
      <stop offset="0%" style="stop-color:#8b5cf6;stop-opacity:1" />
      <stop offset="100%" style="stop-color:#d946ef;stop-opacity:1" />
    </linearGradient>
  </defs>
  <rect width="800" height="500" fill="url(#bg-creative)"/>
  <circle cx="650" cy="100" r="200" fill="#8b5cf6" opacity="0.1"/>
  <circle cx="150" cy="400" r="150" fill="#d946ef" opacity="0.1"/>
  <rect x="20" y="20" width="760" height="60" rx="8" fill="rgba(255,255,255,0.05)"/>
  <circle cx="60" cy="50" r="15" fill="url(#accent)"/>
  <rect x="90" y="40" width="100" height="20" rx="4" fill="rgba(255,255,255,0.2)"/>
  <rect x="20" y="100" width="400" height="280" rx="12" fill="rgba(255,255,255,0.03)" stroke="rgba(139,92,246,0.3)" stroke-width="1"/>
  <text x="40" y="160" font-family="system-ui" font-size="14" fill="#a78bfa" text-anchor="start">CREATIVE PORTFOLIO</text>
  <text x="40" y="210" font-family="system-ui" font-size="28" font-weight="bold" fill="#f8fafc" text-anchor="start">Stunning Visual</text>
  <text x="40" y="250" font-family="system-ui" font-size="28" font-weight="bold" fill="#f8fafc" text-anchor="start">Experiences</text>
  <text x="40" y="290" font-family="system-ui" font-size="14" fill="#94a3b8" text-anchor="start">Scroll animations • Parallax effects</text>
  <text x="40" y="310" font-family="system-ui" font-size="14" fill="#94a3b8" text-anchor="start">Interactive galleries • Premium visuals</text>
  <rect x="40" y="340" width="140" height="40" rx="8" fill="url(#accent)"/>
  <text x="110" y="367" font-family="system-ui" font-size="14" font-weight="600" fill="white" text-anchor="middle">View Work</text>
  <rect x="440" y="100" width="340" height="280" rx="12" fill="rgba(255,255,255,0.03)"/>
  <rect x="460" y="120" width="300" height="180" rx="8" fill="rgba(139,92,246,0.2)"/>
  <text x="610" y="220" font-family="system-ui" font-size="24" fill="#8b5cf6" text-anchor="middle">✦</text>
  <rect x="460" y="320" width="90" height="40" rx="6" fill="rgba(255,255,255,0.05)"/>
  <rect x="560" y="320" width="90" height="40" rx="6" fill="rgba(255,255,255,0.05)"/>
  <rect x="660" y="320" width="90" height="40" rx="6" fill="rgba(255,255,255,0.05)"/>
  <rect x="20" y="400" width="760" height="80" rx="8" fill="rgba(255,255,255,0.02)"/>
</svg>

