<svg xmlns="http://www.w3.org/2000/svg" width="800" height="500" viewBox="0 0 800 500">
  <defs>
    <linearGradient id="bg" x1="0%" y1="0%" x2="100%" y2="100%">
      <stop offset="0%" style="stop-color:#1e293b;stop-opacity:1" />
      <stop offset="100%" style="stop-color:#334155;stop-opacity:1" />
    </linearGradient>
  </defs>
  <rect width="800" height="500" fill="url(#bg)"/>
  <rect x="20" y="20" width="760" height="60" rx="8" fill="#475569"/>
  <circle cx="60" cy="50" r="15" fill="#64748b"/>
  <rect x="90" y="40" width="100" height="20" rx="4" fill="#64748b"/>
  <rect x="580" y="40" width="60" height="20" rx="4" fill="#64748b"/>
  <rect x="660" y="40" width="60" height="20" rx="4" fill="#64748b"/>
  <rect x="20" y="100" width="760" height="200" rx="8" fill="#334155"/>
  <text x="400" y="180" font-family="system-ui" font-size="32" font-weight="bold" fill="#f1f5f9" text-anchor="middle">Standard Business Template</text>
  <text x="400" y="220" font-family="system-ui" font-size="16" fill="#94a3b8" text-anchor="middle">Clean, professional design for service businesses</text>
  <rect x="320" y="250" width="160" height="40" rx="8" fill="#6366f1"/>
  <text x="400" y="277" font-family="system-ui" font-size="14" font-weight="600" fill="white" text-anchor="middle">Get Started</text>
  <rect x="20" y="320" width="240" height="160" rx="8" fill="#475569"/>
  <rect x="280" y="320" width="240" height="160" rx="8" fill="#475569"/>
  <rect x="540" y="320" width="240" height="160" rx="8" fill="#475569"/>
  <text x="140" y="410" font-family="system-ui" font-size="14" fill="#94a3b8" text-anchor="middle">Services</text>
  <text x="400" y="410" font-family="system-ui" font-size="14" fill="#94a3b8" text-anchor="middle">About Us</text>
  <text x="660" y="410" font-family="system-ui" font-size="14" fill="#94a3b8" text-anchor="middle">Contact</text>
</svg>

